<svg width="280" height="168" viewBox="0 0 280 168" fill="none" xmlns="http://www.w3.org/2000/svg">
<g clip-path="url(#clip0_994_4566)">
<rect width="280" height="168" rx="7.73685" fill="#F3F7F8"/>
<path d="M91.0001 99.2869L160.237 174.721H21.7636L91.0001 99.2869Z" fill="#DDE1E2"/>
<path d="M170.304 77.3687L259.083 174.079H81.5252L170.304 77.3687Z" fill="#E4EAEA"/>
<ellipse cx="216.635" cy="37.3964" rx="19.3421" ry="19.3422" fill="#DDE1E2"/>
<path fill-rule="evenodd" clip-rule="evenodd" d="M139.999 67.3337C130.799 67.3337 123.332 74.8004 123.332 84.0004C123.332 93.2004 130.799 100.667 139.999 100.667C149.199 100.667 156.665 93.2004 156.665 84.0004C156.665 74.8004 149.199 67.3337 139.999 67.3337ZM146.665 85.6673H141.665V90.6673C141.665 91.584 140.915 92.334 139.998 92.334C139.081 92.334 138.331 91.584 138.331 90.6673V85.6673H133.331C132.415 85.6673 131.665 84.9173 131.665 84.0006C131.665 83.084 132.415 82.334 133.331 82.334H138.331V77.334C138.331 76.4173 139.081 75.6673 139.998 75.6673C140.915 75.6673 141.665 76.4173 141.665 77.334V82.334H146.665C147.581 82.334 148.331 83.084 148.331 84.0006C148.331 84.9173 147.581 85.6673 146.665 85.6673Z" fill="#3699FF"/>
</g>
<defs>
<clipPath id="clip0_994_4566">
<rect width="280" height="168" rx="7.73685" fill="white"/>
</clipPath>
</defs>
</svg>
